Format : AVI
      Format/Info : Audio Video Interleave
      File size : 175 MiB
      Duration : 21mn 34s
      Overall bit rate : 1 135 Kbps
      Writing application : VirtualDubMod 1.5.10.2 (build 2540/release)
      Writing library : VirtualDubMod build 2540/release

   Video
      Format : MPEG-4 Visual
      Format profile : AdvancedSimple@L5
      Format settings, BVOP : Yes
      Format settings, QPel : No
      Format settings, GMC : No warppoints
      Format settings, Matrix : Default (H.263)
      Muxing mode : Packed bitstream
      Codec ID : XVID
      Codec ID/Hint : XviD
      Duration : 21mn 34s
      Bit rate : 1 026 Kbps
      Width : 624 pixels
      Height : 352 pixels
      Display aspect ratio : 16:9
      Frame rate : 29.970 fps
      Resolution : 24 bits
      Colorimetry : 4:2:0
      Scan type : Progressive
      Bits/(Pixel*Frame) : 0.156
      Stream size : 158 MiB (90%)
      Writing library : XviD 1.2.1 (UTC 2008-12-04)

   Audio
      Format : MPEG Audio
      Format version : Version 1
      Format profile : Layer 3
      Codec ID : 55
      Codec ID/Hint : MP3
      Duration : 21mn 34s
      Bit rate mode : Variable
      Bit rate : 95.1 Kbps
      Minimum bit rate : 32.0 Kbps
      Channel(s) : 2 channels
      Sampling rate : 48.0 KHz
      Resolution : 16 bits
      Stream size : 14.7 MiB (8%)
      Alignment : Aligned on interleaves
      Interleave, duration : 24 ms (0.72 video frame)
      Interleave, preload duration : 779 ms
      Writing library : LAME3.97b
      Encoding settings : -m j -V 5 -q 3 -lowpass 16 --vbr-new -b 32
********************************************************************
ScreenShots:-
1. http://img163.imageshack.us/img163/8655/61301268.jpg
2. http://img704.imageshack.us/img704/636/42012565.jpg
*********************************************************************
Genre: Reality-TV
********************************************************************
Plot: A reality series that follows action star Steven Seagal's adventures as a fully-commissioned deputy with the Jefferson Parish Sheriff's Office in Louisiana.
********************************************************************
Download, Comment, Seed and then Enjoy